# File exported by Houdini 19.0.383 (www.sidefx.com)
# 90 points
# 352 vertices
# 88 primitives
# Bounds: [-0.749704003, -1.00000095, -0.374972999] to [0.749704003, 1.00000095, 0.374972999]
g 
v -0.689256012 0.87173897 0.330936998
v -0.71055299 0.934529006 0.0297369994
v -0.671944022 -0.911135972 0.286787987
v -0.67661202 -0.939885974 -0.0178820007
v -0.38952899 0.923394024 0.329373986
v -0.712094009 0.674611986 0.349391997
v -0.374850988 0.666673005 0.374972999
v -0.374848992 1.00000095 0
v -0.749704003 0.666665971 0
v -0.335334003 -0.917967021 0.333485007
v -0.374853998 -0.666665971 0.374972999
v -0.742356002 -0.653816998 0.324247986
v -0.749704003 -0.666664004 0
v -0.374852985 -1.00000095 0
v -0.749704003 -0.333337009 0
v 0 -1.00000095 0
v 0 -0.899335027 0.341098994
v 0 -0.666674018 0.374971986
v 0 -0.333328009 0.374971986
v -0.374852985 -0.333332002 0.374972999
v 0 -9.00000032e-06 0.374971986
v -0.374852002 3.00000011e-06 0.374972999
v -0.744723022 0.0138109997 0.348358989
v -0.745335996 -0.323215991 0.348598987
v -0.749704003 -3.00000011e-06 0
v -0.749704003 0.333330989 0
v 0 1.00000095 0
v 0 0.943823993 0.321256995
v 0 0.666671991 0.374971986
v -0.374846011 0.333337992 0.374972999
v 0 0.333335996 0.374971986
v -0.725980997 0.348203987 0.363362014
v 0.689256012 0.87173897 0.330936998
v 0.71055299 0.934529006 0.0297369994
v 0.671944022 -0.911135972 0.286787987
v 0.67661202 -0.939885974 -0.0178820007
v 0.38952899 0.923394024 0.329373986
v 0.712094009 0.674611986 0.349391997
v 0.374850988 0.666673005 0.374972999
v 0.374848992 1.00000095 0
v 0.749704003 0.666665971 0
v 0.335334003 -0.917967021 0.333485007
v 0.374853998 -0.666665971 0.374972999
v 0.742356002 -0.653816998 0.324247986
v 0.749704003 -0.666664004 0
v 0.374852985 -1.00000095 0
v 0.749704003 -0.333337009 0
v 0.374852985 -0.333332002 0.374972999
v 0.374852002 3.00000011e-06 0.374972999
v 0.744723022 0.0138109997 0.348358989
v 0.745335996 -0.323215991 0.348598987
v 0.749704003 -3.00000011e-06 0
v 0.749704003 0.333330989 0
v 0.374846011 0.333337992 0.374972999
v 0.725980997 0.348203987 0.363362014
v -0.689256012 0.87173897 -0.330936998
v -0.671944022 -0.911135972 -0.286787987
v -0.38952899 0.923394024 -0.329373986
v -0.712094009 0.674611986 -0.349391997
v -0.374850988 0.666673005 -0.374972999
v -0.335334003 -0.917967021 -0.333485007
v -0.374853998 -0.666665971 -0.374972999
v -0.742356002 -0.653816998 -0.324247986
v 0 -0.899335027 -0.341098994
v 0 -0.666674018 -0.374971986
v 0 -0.333328009 -0.374971986
v -0.374852985 -0.333332002 -0.374972999
v 0 -9.00000032e-06 -0.374971986
v -0.374852002 3.00000011e-06 -0.374972999
v -0.744723022 0.0138109997 -0.348358989
v -0.745335996 -0.323215991 -0.348598987
v 0 0.943823993 -0.321256995
v 0 0.666671991 -0.374971986
v -0.374846011 0.333337992 -0.374972999
v 0 0.333335996 -0.374971986
v -0.725980997 0.348203987 -0.363362014
v 0.689256012 0.87173897 -0.330936998
v 0.671944022 -0.911135972 -0.286787987
v 0.38952899 0.923394024 -0.329373986
v 0.712094009 0.674611986 -0.349391997
v 0.374850988 0.666673005 -0.374972999
v 0.335334003 -0.917967021 -0.333485007
v 0.374853998 -0.666665971 -0.374972999
v 0.742356002 -0.653816998 -0.324247986
v 0.374852985 -0.333332002 -0.374972999
v 0.374852002 3.00000011e-06 -0.374972999
v 0.744723022 0.0138109997 -0.348358989
v 0.745335996 -0.323215991 -0.348598987
v 0.374846011 0.333337992 -0.374972999
v 0.725980997 0.348203987 -0.363362014
vt 0.773217022 0.0223740004 0
vt 0.862049997 0.0463659987 0
vt 0.834452987 0.116691999 0
vt 0.762875974 0.107104003 0
vt 0.870621979 0.424672991 0
vt 0.831746995 0.438587993 0
vt 0.83168298 0.361315012 0
vt 0.893424988 0.366145015 0
vt 0.923395991 0.468071997 0
vt 0.858169019 0.509352982 0
vt 0.966463029 0.381460011 0
vt 0.482259989 0.418628991 0
vt 0.46883899 0.349826992 0
vt 0.530019999 0.357261986 0
vt 0.532593012 0.440786988 0
vt 0.757062018 0.189979002 0
vt 0.682343006 0.188273996 0
vt 0.685805023 0.0990860015 0
vt 0.833091021 0.193954006 0
vt 0.426784009 0.461742014 0
vt 0.498097003 0.503655016 0
vt 0.398375988 0.379202008 0
vt 0.384243995 0.27364701 0
vt 0.470622987 0.274455011 0
vt 0.757152021 0.277006 0
vt 0.681729972 0.276356012 0
vt 0.527981997 0.274982989 0
vt 0.605847001 0.275685012 0
vt 0.60629499 0.362176001 0
vt 0.680814981 0.364434004 0
vt 0.682729006 0.453666002 0
vt 0.605328023 0.450715989 0
vt 0.834321022 0.277649999 0
vt 0.901941001 0.278198004 0
vt 0.894891977 0.190126002 0
vt 0.678296983 0.538028002 0
vt 0.586772978 0.527037024 0
vt 0.759976029 0.446974009 0
vt 0.768868029 0.531863987 0
vt 0.980982006 0.278820992 0
vt 0.968153 0.175962999 0
vt 0.755577028 0.364019006 0
vt 0.873068988 0.131240994 0
vt 0.926536977 0.088696003 0
vt 0.484843999 0.130520001 0
vt 0.535547018 0.109287001 0
vt 0.531489015 0.192753002 0
vt 0.470192999 0.199064001 0
vt 0.43017599 0.0863860026 0
vt 0.502204001 0.0457959995 0
vt 0.400285989 0.168375 0
vt 0.682847023 0.0146580003 0
vt 0.607818007 0.189220995 0
vt 0.608410001 0.100671999 0
vt 0.591223001 0.0240219999 0
vt 0.387318999 0.969980001 0
vt 0.376504987 0.889183998 0
vt 0.444177002 0.880774021 0
vt 0.473120987 0.946157992 0
vt 0.48507601 0.590901017 0
vt 0.506211996 0.646481991 0
vt 0.446781009 0.649209976 0
vt 0.44875899 0.575803995 0
vt 0.545708001 0.543636024 0
vt 0.479651988 0.511328995 0
vt 0.575258017 0.630982995 0
vt 0.114055 0.583715022 0
vt 0.163334996 0.564282 0
vt 0.158540994 0.644529998 0
vt 0.100129999 0.650084972 0
vt 0.371636003 0.810000002 0
vt 0.302877009 0.895825028 0
vt 0.300319999 0.810405016 0
vt 0.444398999 0.807341993 0
vt 0.0678580031 0.545862973 0
vt 0.134319007 0.501757979 0
vt 0.0325930007 0.621829987 0
vt 0.0175700001 0.722015977 0
vt 0.0999850035 0.723203003 0
vt 0.373409003 0.727195978 0
vt 0.301362991 0.726132989 0
vt 0.154605001 0.723993003 0
vt 0.231466994 0.641955972 0
vt 0.228947997 0.725073993 0
vt 0.302819997 0.641866982 0
vt 0.233704999 0.557103992 0
vt 0.307898015 0.556563973 0
vt 0.447322994 0.728302002 0
vt 0.512318015 0.729292989 0
vt 0.503706992 0.811877012 0
vt 0.219788 0.48307699 0
vt 0.307687998 0.475721002 0
vt 0.394537002 0.484939009 0
vt 0.38133201 0.565373003 0
vt 0.588238001 0.730476975 0
vt 0.572236001 0.829510987 0
vt 0.374112993 0.644374013 0
vt 0.480915993 0.866786003 0
vt 0.540076017 0.915880978 0
vt 0.109971002 0.863044024 0
vt 0.0979899988 0.796296 0
vt 0.156206995 0.803538024 0
vt 0.158654004 0.883895993 0
vt 0.0627020001 0.899549007 0
vt 0.127839997 0.945556998 0
vt 0.0296669994 0.822596014 0
vt 0.300296992 0.976628006 0
vt 0.229014993 0.808229029 0
vt 0.228761002 0.893114984 0
vt 0.212697998 0.966710985 0
vn 1 0 0
vn 0.997435868 0.0714855567 -0.0033935688
vn 0.694455147 0.102247156 0.712234139
vn 0.684863508 0.0328130946 0.727932274
vn -0.569256961 0.522234976 0.634993792
vn -0.694455147 0.102247149 0.712234139
vn -0.036019206 0.0859667584 0.995646715
vn -0.0701343417 0.695925176 0.714681149
vn -0.701496005 0.712235689 0.0249735694
vn -0.997435868 0.0714855567 -0.0033935688
vn -0.694455147 0.102247149 0.712234139
vn -0.569256961 0.522234976 0.634993792
vn -0.701496005 0.712235689 0.0249735694
vn -0.569256961 0.522234976 0.634993792
vn -0.0701343417 0.695925176 0.714681149
vn -0.0927193984 0.995678365 -0.00526733464
vn -0.533663154 -0.660523117 0.528122008
vn -0.0402738936 -0.680547297 0.73159647
vn -0.0730198026 -0.0880923793 0.993432403
vn -0.750820756 -0.162887424 0.640106082
vn 0.0165252071 3.24358318e-08 0.999863446
vn 0.0359066054 3.69215485e-07 0.999355137
vn 0.737971246 0.00713612512 0.674794495
vn 0.684863508 0.0328130946 0.727932274
vn 0.0165252071 3.24358318e-08 0.999863446
vn 0.684863508 0.0328130946 0.727932274
vn 0.694455147 0.102247156 0.712234139
vn 0.0360192023 0.0859667435 0.995646715
vn -0.670252681 -0.742085814 -0.00837094802
vn -0.533663154 -0.660523117 0.528122008
vn -0.750820756 -0.162887424 0.640106082
vn -0.991069496 -0.133344963 0.000686357263
vn -0.670252681 -0.742085814 -0.00837094802
vn -0.103968523 -0.994566262 0.00533014722
vn -0.0402738936 -0.680547297 0.73159647
vn -0.533663154 -0.660523117 0.528122008
vn 0 -1 0
vn 3.49862583e-10 -0.640013218 0.768363893
vn -0.0402738936 -0.680547297 0.73159647
vn -0.103968523 -0.994566262 0.00533014722
vn 7.23752926e-14 0 1
vn 0 0 1
vn 0.0359066054 3.69215485e-07 0.999355137
vn 0.0165252071 3.24358318e-08 0.999863446
vn 3.49862583e-10 -0.640013218 0.768363893
vn 0 -0.0722248927 0.997388363
vn -0.0730198026 -0.0880923793 0.993432403
vn -0.0402738936 -0.680547297 0.73159647
vn 0 -0.0722248927 0.997388363
vn 7.23752926e-14 0 1
vn -0.0355253182 1.06430221e-07 0.999368787
vn -0.0730198026 -0.0880923793 0.993432403
vn -0.0355253182 1.06430221e-07 0.999368787
vn 7.23752926e-14 0 1
vn 0 0 1
vn -0.0359066054 3.69215428e-07 0.999355137
vn -0.0355253182 1.06430221e-07 0.999368787
vn -0.0359066054 3.69215428e-07 0.999355137
vn -0.737971187 0.00713612512 0.674794436
vn -0.7209391 -0.0271898378 0.692464828
vn -0.0355253182 1.06430221e-07 0.999368787
vn -0.7209391 -0.0271898378 0.692464828
vn -0.750820756 -0.162887424 0.640106082
vn -0.0730198026 -0.0880923793 0.993432403
vn 7.27080952e-14 0.0955723301 0.995422423
vn 7.23752926e-14 0 1
vn 0.0165252071 3.24358318e-08 0.999863446
vn 0.0360192023 0.0859667435 0.995646715
vn 3.63109709e-10 0.726316988 0.687359869
vn 7.27080952e-14 0.0955723301 0.995422423
vn 0.0360192023 0.0859667435 0.995646715
vn 0.0701343417 0.695925236 0.714681149
vn -0.7209391 -0.0271898378 0.692464828
vn -0.737971187 0.00713612512 0.674794436
vn -1 0 -2.96479535e-10
vn -1 0 0
vn -0.7209391 -0.0271898378 0.692464828
vn -1 0 0
vn -0.991069496 -0.133344963 0.000686357263
vn -0.750820756 -0.162887424 0.640106082
vn -1 0 -2.96479535e-10
vn -0.737971187 0.00713612512 0.674794436
vn -0.684863508 0.0328130946 0.727932215
vn -1 0 0
vn 0 1 0
vn -0.0927193984 0.995678365 -0.00526733464
vn -0.0701343417 0.695925176 0.714681149
vn 3.63109709e-10 0.726316988 0.687359869
vn 0 1 0
vn 3.63109709e-10 0.726316988 0.687359869
vn 0.0701343417 0.695925236 0.714681149
vn 0.0927193984 0.995678365 -0.00526733464
vn 3.63109709e-10 0.726316988 0.687359869
vn -0.0701343417 0.695925176 0.714681149
vn -0.036019206 0.0859667584 0.995646715
vn 7.27080952e-14 0.0955723301 0.995422423
vn 7.27080952e-14 0.0955723301 0.995422423
vn -0.036019206 0.0859667584 0.995646715
vn -0.0165252071 3.24358354e-08 0.999863446
vn 7.23752926e-14 0 1
vn 7.23752926e-14 0 1
vn -0.0165252071 3.24358354e-08 0.999863446
vn -0.0359066054 3.69215428e-07 0.999355137
vn 0 0 1
vn -0.0165252071 3.24358354e-08 0.999863446
vn -0.036019206 0.0859667584 0.995646715
vn -0.694455147 0.102247149 0.712234139
vn -0.684863508 0.0328130946 0.727932215
vn -0.0165252071 3.24358354e-08 0.999863446
vn -0.684863508 0.0328130946 0.727932215
vn -0.737971187 0.00713612512 0.674794436
vn -0.0359066054 3.69215428e-07 0.999355137
vn -1 0 0
vn -0.684863508 0.0328130946 0.727932215
vn -0.694455147 0.102247149 0.712234139
vn -0.997435868 0.0714855567 -0.0033935688
vn 0.569256961 0.522234976 0.634993792
vn 0.0701343417 0.695925236 0.714681149
vn 0.0360192023 0.0859667435 0.995646715
vn 0.694455147 0.102247156 0.712234139
vn 0.701496005 0.712235689 0.0249735694
vn 0.569256961 0.522234976 0.634993792
vn 0.694455147 0.102247156 0.712234139
vn 0.997435868 0.0714855567 -0.0033935688
vn 0.701496005 0.712235689 0.0249735694
vn 0.0927193984 0.995678365 -0.00526733464
vn 0.0701343417 0.695925236 0.714681149
vn 0.569256961 0.522234976 0.634993792
vn 0.533663154 -0.660523117 0.528122008
vn 0.750820756 -0.162887424 0.640106082
vn 0.0730198026 -0.0880923793 0.993432403
vn 0.0402738936 -0.680547297 0.73159647
vn 0.670252681 -0.742085814 -0.00837094802
vn 0.991069496 -0.133344963 0.000686357263
vn 0.750820756 -0.162887424 0.640106082
vn 0.533663154 -0.660523117 0.528122008
vn 0.670252681 -0.742085814 -0.00837094802
vn 0.533663154 -0.660523117 0.528122008
vn 0.0402738936 -0.680547297 0.73159647
vn 0.103968523 -0.994566262 0.00533014722
vn 0 -1 0
vn 0.103968523 -0.994566262 0.00533014722
vn 0.0402738936 -0.680547297 0.73159647
vn 3.49862583e-10 -0.640013218 0.768363893
vn 1 0 -2.96479508e-10
vn 1 0 0
vn 0.684863508 0.0328130946 0.727932274
vn 0.737971246 0.00713612512 0.674794495
vn 3.49862583e-10 -0.640013218 0.768363893
vn 0.0402738936 -0.680547297 0.73159647
vn 0.0730198026 -0.0880923793 0.993432403
vn 0 -0.0722248927 0.997388363
vn 0 -0.0722248927 0.997388363
vn 0.0730198026 -0.0880923793 0.993432403
vn 0.0355253182 1.06430221e-07 0.999368787
vn 7.23752926e-14 0 1
vn 0.0355253182 1.06430221e-07 0.999368787
vn 0.0359066054 3.69215485e-07 0.999355137
vn 0 0 1
vn 7.23752926e-14 0 1
vn 0.0355253182 1.06430221e-07 0.999368787
vn 0.7209391 -0.0271898378 0.692464828
vn 0.737971246 0.00713612512 0.674794495
vn 0.0359066054 3.69215485e-07 0.999355137
vn 0.0355253182 1.06430221e-07 0.999368787
vn 0.0730198026 -0.0880923793 0.993432403
vn 0.750820756 -0.162887424 0.640106082
vn 0.7209391 -0.0271898378 0.692464828
vn 0.7209391 -0.0271898378 0.692464828
vn 0.750820756 -0.162887424 0.640106082
vn 0.991069496 -0.133344963 0.000686357263
vn 1 0 0
vn 0.7209391 -0.0271898378 0.692464828
vn 1 0 0
vn 1 0 -2.96479508e-10
vn 0.737971246 0.00713612512 0.674794495
vn 1 0 0
vn 0.684863508 0.0328130946 -0.727932274
vn 0.694455147 0.102247156 -0.712234139
vn 0.997435868 0.0714855567 -0.0033935688
vn -0.572910428 0.532080054 -0.623429477
vn -0.0701343417 0.695925176 -0.714681149
vn -0.036019206 0.0859667584 -0.995646715
vn -0.694455147 0.102247149 -0.712234139
vn -0.701496005 0.712235689 0.0249735694
vn -0.572910428 0.532080054 -0.623429477
vn -0.694455147 0.102247149 -0.712234139
vn -0.997435868 0.0714855567 -0.0033935688
vn -0.701496005 0.712235689 0.0249735694
vn -0.0927193984 0.995678365 -0.00526733464
vn -0.0701343417 0.695925176 -0.714681149
vn -0.572910428 0.532080054 -0.623429477
vn -0.533445597 -0.656946838 -0.532782197
vn -0.750820756 -0.162887424 -0.640106082
vn -0.0730198026 -0.0880923793 -0.993432403
vn -0.0402738936 -0.680547297 -0.73159647
vn 0.0165252071 3.24358318e-08 -0.999863446
vn 0.684863508 0.0328130946 -0.727932274
vn 0.737971246 0.00713612512 -0.674794495
vn 0.0359066054 3.69215485e-07 -0.999355137
vn 0.0165252071 3.24358318e-08 -0.999863446
vn 0.0360192023 0.0859667435 -0.995646715
vn 0.694455147 0.102247156 -0.712234139
vn 0.684863508 0.0328130946 -0.727932274
vn -0.670252681 -0.742085814 -0.00837094802
vn -0.991069496 -0.133344963 0.000686357263
vn -0.750820756 -0.162887424 -0.640106082
vn -0.533445597 -0.656946838 -0.532782197
vn -0.670252681 -0.742085814 -0.00837094802
vn -0.533445597 -0.656946838 -0.532782197
vn -0.0402738936 -0.680547297 -0.73159647
vn -0.103968523 -0.994566262 0.00533014722
vn 0 -1 0
vn -0.103968523 -0.994566262 0.00533014722
vn -0.0402738936 -0.680547297 -0.73159647
vn 3.49862583e-10 -0.640013218 -0.768363893
vn 7.23752926e-14 0 -1
vn 0.0165252071 3.24358318e-08 -0.999863446
vn 0.0359066054 3.69215485e-07 -0.999355137
vn 0 0 -1
vn 3.49862583e-10 -0.640013218 -0.768363893
vn -0.0402738936 -0.680547297 -0.73159647
vn -0.0730198026 -0.0880923793 -0.993432403
vn 0 -0.0722248927 -0.997388363
vn 0 -0.0722248927 -0.997388363
vn -0.0730198026 -0.0880923793 -0.993432403
vn -0.0355253182 1.06430221e-07 -0.999368787
vn 7.23752926e-14 0 -1
vn -0.0355253182 1.06430221e-07 -0.999368787
vn -0.0359066054 3.69215428e-07 -0.999355137
vn 0 0 -1
vn 7.23752926e-14 0 -1
vn -0.0355253182 1.06430221e-07 -0.999368787
vn -0.7209391 -0.0271898378 -0.692464828
vn -0.737971187 0.00713612512 -0.674794436
vn -0.0359066054 3.69215428e-07 -0.999355137
vn -0.0355253182 1.06430221e-07 -0.999368787
vn -0.0730198026 -0.0880923793 -0.993432403
vn -0.750820756 -0.162887424 -0.640106082
vn -0.7209391 -0.0271898378 -0.692464828
vn 7.27080952e-14 0.0955723301 -0.995422423
vn 0.0360192023 0.0859667435 -0.995646715
vn 0.0165252071 3.24358318e-08 -0.999863446
vn 7.23752926e-14 0 -1
vn 3.63109709e-10 0.726316988 -0.687359869
vn 0.0701343417 0.695925236 -0.714681149
vn 0.0360192023 0.0859667435 -0.995646715
vn 7.27080952e-14 0.0955723301 -0.995422423
vn -0.7209391 -0.0271898378 -0.692464828
vn -1 0 0
vn -1 0 -2.96479535e-10
vn -0.737971187 0.00713612512 -0.674794436
vn -0.7209391 -0.0271898378 -0.692464828
vn -0.750820756 -0.162887424 -0.640106082
vn -0.991069496 -0.133344963 0.000686357263
vn -1 0 0
vn -1 0 -2.96479535e-10
vn -1 0 0
vn -0.684863508 0.0328130946 -0.727932215
vn -0.737971187 0.00713612512 -0.674794436
vn 0 1 0
vn 3.63109709e-10 0.726316988 -0.687359869
vn -0.0701343417 0.695925176 -0.714681149
vn -0.0927193984 0.995678365 -0.00526733464
vn 0 1 0
vn 0.0927193984 0.995678365 -0.00526733464
vn 0.0701343417 0.695925236 -0.714681149
vn 3.63109709e-10 0.726316988 -0.687359869
vn 3.63109709e-10 0.726316988 -0.687359869
vn 7.27080952e-14 0.0955723301 -0.995422423
vn -0.036019206 0.0859667584 -0.995646715
vn -0.0701343417 0.695925176 -0.714681149
vn 7.27080952e-14 0.0955723301 -0.995422423
vn 7.23752926e-14 0 -1
vn -0.0165252071 3.24358354e-08 -0.999863446
vn -0.036019206 0.0859667584 -0.995646715
vn 7.23752926e-14 0 -1
vn 0 0 -1
vn -0.0359066054 3.69215428e-07 -0.999355137
vn -0.0165252071 3.24358354e-08 -0.999863446
vn -0.0165252071 3.24358354e-08 -0.999863446
vn -0.684863508 0.0328130946 -0.727932215
vn -0.694455147 0.102247149 -0.712234139
vn -0.036019206 0.0859667584 -0.995646715
vn -0.0165252071 3.24358354e-08 -0.999863446
vn -0.0359066054 3.69215428e-07 -0.999355137
vn -0.737971187 0.00713612512 -0.674794436
vn -0.684863508 0.0328130946 -0.727932215
vn -1 0 0
vn -0.997435868 0.0714855567 -0.0033935688
vn -0.694455147 0.102247149 -0.712234139
vn -0.684863508 0.0328130946 -0.727932215
vn 0.572910428 0.532080054 -0.623429477
vn 0.694455147 0.102247156 -0.712234139
vn 0.0360192023 0.0859667435 -0.995646715
vn 0.0701343417 0.695925236 -0.714681149
vn 0.701496005 0.712235689 0.0249735694
vn 0.997435868 0.0714855567 -0.0033935688
vn 0.694455147 0.102247156 -0.712234139
vn 0.572910428 0.532080054 -0.623429477
vn 0.701496005 0.712235689 0.0249735694
vn 0.572910428 0.532080054 -0.623429477
vn 0.0701343417 0.695925236 -0.714681149
vn 0.0927193984 0.995678365 -0.00526733464
vn 0.533445597 -0.656946838 -0.532782197
vn 0.0402738936 -0.680547297 -0.73159647
vn 0.0730198026 -0.0880923793 -0.993432403
vn 0.750820756 -0.162887424 -0.640106082
vn 0.670252681 -0.742085814 -0.00837094802
vn 0.533445597 -0.656946838 -0.532782197
vn 0.750820756 -0.162887424 -0.640106082
vn 0.991069496 -0.133344963 0.000686357263
vn 0.670252681 -0.742085814 -0.00837094802
vn 0.103968523 -0.994566262 0.00533014722
vn 0.0402738936 -0.680547297 -0.73159647
vn 0.533445597 -0.656946838 -0.532782197
vn 0 -1 0
vn 3.49862583e-10 -0.640013218 -0.768363893
vn 0.0402738936 -0.680547297 -0.73159647
vn 0.103968523 -0.994566262 0.00533014722
vn 1 0 -2.96479508e-10
vn 0.737971246 0.00713612512 -0.674794495
vn 0.684863508 0.0328130946 -0.727932274
vn 1 0 0
vn 3.49862583e-10 -0.640013218 -0.768363893
vn 0 -0.0722248927 -0.997388363
vn 0.0730198026 -0.0880923793 -0.993432403
vn 0.0402738936 -0.680547297 -0.73159647
vn 0 -0.0722248927 -0.997388363
vn 7.23752926e-14 0 -1
vn 0.0355253182 1.06430221e-07 -0.999368787
vn 0.0730198026 -0.0880923793 -0.993432403
vn 0.0355253182 1.06430221e-07 -0.999368787
vn 7.23752926e-14 0 -1
vn 0 0 -1
vn 0.0359066054 3.69215485e-07 -0.999355137
vn 0.0355253182 1.06430221e-07 -0.999368787
vn 0.0359066054 3.69215485e-07 -0.999355137
vn 0.737971246 0.00713612512 -0.674794495
vn 0.7209391 -0.0271898378 -0.692464828
vn 0.0355253182 1.06430221e-07 -0.999368787
vn 0.7209391 -0.0271898378 -0.692464828
vn 0.750820756 -0.162887424 -0.640106082
vn 0.0730198026 -0.0880923793 -0.993432403
vn 0.7209391 -0.0271898378 -0.692464828
vn 1 0 0
vn 0.991069496 -0.133344963 0.000686357263
vn 0.750820756 -0.162887424 -0.640106082
vn 0.7209391 -0.0271898378 -0.692464828
vn 0.737971246 0.00713612512 -0.674794495
vn 1 0 -2.96479508e-10
vn 1 0 0
g Rock_2_Baja1_Group14418
usemtl /mat/aiStandardSurface1SG
f 53/1/1 41/2/2 38/3/3 55/4/4
f 1/5/5 6/6/6 7/7/7 5/8/8
f 2/9/9 9/10/10 6/6/11 1/5/12
f 2/9/13 1/5/14 5/8/15 8/11/16
f 3/12/17 10/13/18 11/14/19 12/15/20
f 54/16/21 49/17/22 50/18/23 55/4/24
f 54/16/25 55/4/26 38/3/27 39/19/28
f 4/20/29 3/12/30 12/15/31 13/21/32
f 4/20/33 14/22/34 10/13/35 3/12/36
f 16/23/37 17/24/38 10/13/39 14/22/40
f 31/25/41 21/26/42 49/17/43 54/16/44
f 17/24/45 18/27/46 11/14/47 10/13/48
f 18/27/49 19/28/50 20/29/51 11/14/52
f 20/29/53 19/28/54 21/26/55 22/30/56
f 20/29/57 22/30/58 23/31/59 24/32/60
f 20/29/61 24/32/62 12/15/63 11/14/64
f 29/33/65 31/25/66 54/16/67 39/19/68
f 28/34/69 29/33/70 39/19/71 37/35/72
f 24/32/73 23/31/74 25/36/75 15/37/76
f 24/32/77 15/37/78 13/21/79 12/15/80
f 25/36/81 23/31/82 32/38/83 26/39/84
f 27/40/85 8/11/86 5/8/87 28/34/88
f 27/40/89 28/34/90 37/35/91 40/41/92
f 28/34/93 5/8/94 7/7/95 29/33/96
f 29/33/97 7/7/98 30/42/99 31/25/100
f 31/25/101 30/42/102 22/30/103 21/26/104
f 30/42/105 7/7/106 6/6/107 32/38/108
f 30/42/109 32/38/110 23/31/111 22/30/112
f 26/39/113 32/38/114 6/6/115 9/10/116
f 33/43/117 37/35/118 39/19/119 38/3/120
f 34/44/121 33/43/122 38/3/123 41/2/124
f 34/44/125 40/41/126 37/35/127 33/43/128
f 35/45/129 44/46/130 43/47/131 42/48/132
f 36/49/133 45/50/134 44/46/135 35/45/136
f 36/49/137 35/45/138 42/48/139 46/51/140
f 16/23/141 46/51/142 42/48/143 17/24/144
f 52/52/145 53/1/146 55/4/147 50/18/148
f 17/24/149 42/48/150 43/47/151 18/27/152
f 18/27/153 43/47/154 48/53/155 19/28/156
f 48/53/157 49/17/158 21/26/159 19/28/160
f 48/53/161 51/54/162 50/18/163 49/17/164
f 48/53/165 43/47/166 44/46/167 51/54/168
f 51/54/169 44/46/170 45/50/171 47/55/172
f 51/54/173 47/55/174 52/52/175 50/18/176
f 53/56/177 90/57/178 80/58/179 41/59/180
f 56/60/181 58/61/182 60/62/183 59/63/184
f 2/64/185 56/60/186 59/63/187 9/65/188
f 2/64/189 8/66/190 58/61/191 56/60/192
f 57/67/193 63/68/194 62/69/195 61/70/196
f 89/71/197 90/57/198 87/72/199 86/73/200
f 89/71/201 81/74/202 80/58/203 90/57/204
f 4/75/205 13/76/206 63/68/207 57/67/208
f 4/75/209 57/67/210 61/70/211 14/77/212
f 16/78/213 14/77/214 61/70/215 64/79/216
f 75/80/217 89/71/218 86/73/219 68/81/220
f 64/79/221 61/70/222 62/69/223 65/82/224
f 65/82/225 62/69/226 67/83/227 66/84/228
f 67/83/229 69/85/230 68/81/231 66/84/232
f 67/83/233 71/86/234 70/87/235 69/85/236
f 67/83/237 62/69/238 63/68/239 71/86/240
f 73/88/241 81/74/242 89/71/243 75/80/244
f 72/89/245 79/90/246 81/74/247 73/88/248
f 71/86/249 15/91/250 25/92/251 70/87/252
f 71/86/253 63/68/254 13/76/255 15/91/256
f 25/92/257 26/93/258 76/94/259 70/87/260
f 27/95/261 72/89/262 58/61/263 8/66/264
f 27/95/265 40/96/266 79/90/267 72/89/268
f 72/89/269 73/88/270 60/62/271 58/61/272
f 73/88/273 75/80/274 74/97/275 60/62/276
f 75/80/277 68/81/278 69/85/279 74/97/280
f 74/97/281 76/94/282 59/63/283 60/62/284
f 74/97/285 69/85/286 70/87/287 76/94/288
f 26/93/289 9/65/290 59/63/291 76/94/292
f 77/98/293 80/58/294 81/74/295 79/90/296
f 34/99/297 41/59/298 80/58/299 77/98/300
f 34/99/301 77/98/302 79/90/303 40/96/304
f 78/100/305 82/101/306 83/102/307 84/103/308
f 36/104/309 78/100/310 84/103/311 45/105/312
f 36/104/313 46/106/314 82/101/315 78/100/316
f 16/78/317 64/79/318 82/101/319 46/106/320
f 52/107/321 87/72/322 90/57/323 53/56/324
f 64/79/325 65/82/326 83/102/327 82/101/328
f 65/82/329 66/84/330 85/108/331 83/102/332
f 85/108/333 66/84/334 68/81/335 86/73/336
f 85/108/337 86/73/338 87/72/339 88/109/340
f 85/108/341 88/109/342 84/103/343 83/102/344
f 88/109/345 47/110/346 45/105/347 84/103/348
f 88/109/349 87/72/350 52/107/351 47/110/352
