# File exported by Houdini 19.0.383 (www.sidefx.com)
# 90 points
# 352 vertices
# 88 primitives
# Bounds: [-0.749704003, -1.00000095, -0.374972999] to [0.749704003, 1.00000095, 0.374972999]
g 
v -0.689256012 0.87173897 0.330936998
v -0.71055299 0.934529006 0.0297369994
v -0.671944022 -0.911135972 0.286787987
v -0.67661202 -0.939885974 -0.0178820007
v -0.38952899 0.923394024 0.329373986
v -0.712094009 0.674611986 0.349391997
v -0.374850988 0.666673005 0.374972999
v -0.374848992 1.00000095 0
v -0.749704003 0.666665971 0
v -0.335334003 -0.917967021 0.333485007
v -0.374853998 -0.666665971 0.374972999
v -0.742356002 -0.653816998 0.324247986
v -0.749704003 -0.666664004 0
v -0.374852985 -1.00000095 0
v -0.749704003 -0.333337009 0
v 0 -1.00000095 0
v 0 -0.899335027 0.341098994
v 0 -0.666674018 0.374971986
v 0 -0.333328009 0.374971986
v -0.374852985 -0.333332002 0.374972999
v 0 -9.00000032e-06 0.374971986
v -0.374852002 3.00000011e-06 0.374972999
v -0.744723022 0.0138109997 0.348358989
v -0.745335996 -0.323215991 0.348598987
v -0.749704003 -3.00000011e-06 0
v -0.749704003 0.333330989 0
v 0 1.00000095 0
v 0 0.943823993 0.321256995
v 0 0.666671991 0.374971986
v -0.374846011 0.333337992 0.374972999
v 0 0.333335996 0.374971986
v -0.725980997 0.348203987 0.363362014
v 0.689256012 0.87173897 0.330936998
v 0.71055299 0.934529006 0.0297369994
v 0.671944022 -0.911135972 0.286787987
v 0.67661202 -0.939885974 -0.0178820007
v 0.38952899 0.923394024 0.329373986
v 0.712094009 0.674611986 0.349391997
v 0.374850988 0.666673005 0.374972999
v 0.374848992 1.00000095 0
v 0.749704003 0.666665971 0
v 0.335334003 -0.917967021 0.333485007
v 0.374853998 -0.666665971 0.374972999
v 0.742356002 -0.653816998 0.324247986
v 0.749704003 -0.666664004 0
v 0.374852985 -1.00000095 0
v 0.749704003 -0.333337009 0
v 0.374852985 -0.333332002 0.374972999
v 0.374852002 3.00000011e-06 0.374972999
v 0.744723022 0.0138109997 0.348358989
v 0.745335996 -0.323215991 0.348598987
v 0.749704003 -3.00000011e-06 0
v 0.749704003 0.333330989 0
v 0.374846011 0.333337992 0.374972999
v 0.725980997 0.348203987 0.363362014
v -0.689256012 0.87173897 -0.330936998
v -0.671944022 -0.911135972 -0.286787987
v -0.38952899 0.923394024 -0.329373986
v -0.712094009 0.674611986 -0.349391997
v -0.374850988 0.666673005 -0.374972999
v -0.335334003 -0.917967021 -0.333485007
v -0.374853998 -0.666665971 -0.374972999
v -0.742356002 -0.653816998 -0.324247986
v 0 -0.899335027 -0.341098994
v 0 -0.666674018 -0.374971986
v 0 -0.333328009 -0.374971986
v -0.374852985 -0.333332002 -0.374972999
v 0 -9.00000032e-06 -0.374971986
v -0.374852002 3.00000011e-06 -0.374972999
v -0.744723022 0.0138109997 -0.348358989
v -0.745335996 -0.323215991 -0.348598987
v 0 0.943823993 -0.321256995
v 0 0.666671991 -0.374971986
v -0.374846011 0.333337992 -0.374972999
v 0 0.333335996 -0.374971986
v -0.725980997 0.348203987 -0.363362014
v 0.689256012 0.87173897 -0.330936998
v 0.671944022 -0.911135972 -0.286787987
v 0.38952899 0.923394024 -0.329373986
v 0.712094009 0.674611986 -0.349391997
v 0.374850988 0.666673005 -0.374972999
v 0.335334003 -0.917967021 -0.333485007
v 0.374853998 -0.666665971 -0.374972999
v 0.742356002 -0.653816998 -0.324247986
v 0.374852985 -0.333332002 -0.374972999
v 0.374852002 3.00000011e-06 -0.374972999
v 0.744723022 0.0138109997 -0.348358989
v 0.745335996 -0.323215991 -0.348598987
v 0.374846011 0.333337992 -0.374972999
v 0.725980997 0.348203987 -0.363362014
vt 0.773217022 0.0223740004 0
vt 0.862049997 0.0463659987 0
vt 0.834452987 0.116691999 0
vt 0.762875974 0.107104003 0
vt 0.870621979 0.424672991 0
vt 0.831746995 0.438587993 0
vt 0.83168298 0.361315012 0
vt 0.893424988 0.366145015 0
vt 0.923395991 0.468071997 0
vt 0.858169019 0.509352982 0
vt 0.966463029 0.381460011 0
vt 0.482259989 0.418628991 0
vt 0.46883899 0.349826992 0
vt 0.530019999 0.357261986 0
vt 0.532593012 0.440786988 0
vt 0.757062018 0.189979002 0
vt 0.682343006 0.188273996 0
vt 0.685805023 0.0990860015 0
vt 0.833091021 0.193954006 0
vt 0.426784009 0.461742014 0
vt 0.498097003 0.503655016 0
vt 0.398375988 0.379202008 0
vt 0.384243995 0.27364701 0
vt 0.470622987 0.274455011 0
vt 0.757152021 0.277006 0
vt 0.681729972 0.276356012 0
vt 0.527981997 0.274982989 0
vt 0.605847001 0.275685012 0
vt 0.60629499 0.362176001 0
vt 0.680814981 0.364434004 0
vt 0.682729006 0.453666002 0
vt 0.605328023 0.450715989 0
vt 0.834321022 0.277649999 0
vt 0.901941001 0.278198004 0
vt 0.894891977 0.190126002 0
vt 0.678296983 0.538028002 0
vt 0.586772978 0.527037024 0
vt 0.759976029 0.446974009 0
vt 0.768868029 0.531863987 0
vt 0.980982006 0.278820992 0
vt 0.968153 0.175962999 0
vt 0.755577028 0.364019006 0
vt 0.873068988 0.131240994 0
vt 0.926536977 0.088696003 0
vt 0.484843999 0.130520001 0
vt 0.535547018 0.109287001 0
vt 0.531489015 0.192753002 0
vt 0.470192999 0.199064001 0
vt 0.43017599 0.0863860026 0
vt 0.502204001 0.0457959995 0
vt 0.400285989 0.168375 0
vt 0.682847023 0.0146580003 0
vt 0.607818007 0.189220995 0
vt 0.608410001 0.100671999 0
vt 0.591223001 0.0240219999 0
vt 0.387318999 0.969980001 0
vt 0.376504987 0.889183998 0
vt 0.444177002 0.880774021 0
vt 0.473120987 0.946157992 0
vt 0.48507601 0.590901017 0
vt 0.506211996 0.646481991 0
vt 0.446781009 0.649209976 0
vt 0.44875899 0.575803995 0
vt 0.545708001 0.543636024 0
vt 0.479651988 0.511328995 0
vt 0.575258017 0.630982995 0
vt 0.114055 0.583715022 0
vt 0.163334996 0.564282 0
vt 0.158540994 0.644529998 0
vt 0.100129999 0.650084972 0
vt 0.371636003 0.810000002 0
vt 0.302877009 0.895825028 0
vt 0.300319999 0.810405016 0
vt 0.444398999 0.807341993 0
vt 0.0678580031 0.545862973 0
vt 0.134319007 0.501757979 0
vt 0.0325930007 0.621829987 0
vt 0.0175700001 0.722015977 0
vt 0.0999850035 0.723203003 0
vt 0.373409003 0.727195978 0
vt 0.301362991 0.726132989 0
vt 0.154605001 0.723993003 0
vt 0.231466994 0.641955972 0
vt 0.228947997 0.725073993 0
vt 0.302819997 0.641866982 0
vt 0.233704999 0.557103992 0
vt 0.307898015 0.556563973 0
vt 0.447322994 0.728302002 0
vt 0.512318015 0.729292989 0
vt 0.503706992 0.811877012 0
vt 0.219788 0.48307699 0
vt 0.307687998 0.475721002 0
vt 0.394537002 0.484939009 0
vt 0.38133201 0.565373003 0
vt 0.588238001 0.730476975 0
vt 0.572236001 0.829510987 0
vt 0.374112993 0.644374013 0
vt 0.480915993 0.866786003 0
vt 0.540076017 0.915880978 0
vt 0.109971002 0.863044024 0
vt 0.0979899988 0.796296 0
vt 0.156206995 0.803538024 0
vt 0.158654004 0.883895993 0
vt 0.0627020001 0.899549007 0
vt 0.127839997 0.945556998 0
vt 0.0296669994 0.822596014 0
vt 0.300296992 0.976628006 0
vt 0.229014993 0.808229029 0
vt 0.228761002 0.893114984 0
vt 0.212697998 0.966710985 0
vn -0.569256961 0.522234976 0.634993792
vn -0.701496005 0.712235689 0.0249735694
vn -0.533663154 -0.660523117 0.528122008
vn -0.670252681 -0.742085814 -0.00837094802
vn -0.0701343417 0.695925176 0.714681149
vn -0.694455147 0.102247149 0.712234139
vn -0.036019206 0.0859667584 0.995646715
vn -0.0927193984 0.995678365 -0.00526733464
vn -0.997435868 0.0714855567 -0.0033935688
vn -0.0402738936 -0.680547297 0.73159647
vn -0.0730198026 -0.0880923793 0.993432403
vn -0.750820756 -0.162887424 0.640106082
vn -0.991069496 -0.133344963 0.000686357263
vn -0.103968523 -0.994566262 0.00533014722
vn -1 0 0
vn 0 -1 0
vn 3.49862583e-10 -0.640013218 0.768363893
vn 0 -0.0722248927 0.997388363
vn 7.23752926e-14 0 1
vn -0.0355253182 1.06430221e-07 0.999368787
vn 0 0 1
vn -0.0359066054 3.69215428e-07 0.999355137
vn -0.737971187 0.00713612512 0.674794436
vn -0.7209391 -0.0271898378 0.692464828
vn -1 0 -2.96479535e-10
vn -1 0 0
vn 0 1 0
vn 3.63109709e-10 0.726316988 0.687359869
vn 7.27080952e-14 0.0955723301 0.995422423
vn -0.0165252071 3.24358354e-08 0.999863446
vn 7.23752926e-14 0 1
vn -0.684863508 0.0328130946 0.727932215
vn 0.569256961 0.522234976 0.634993792
vn 0.701496005 0.712235689 0.0249735694
vn 0.533663154 -0.660523117 0.528122008
vn 0.670252681 -0.742085814 -0.00837094802
vn 0.0701343417 0.695925236 0.714681149
vn 0.694455147 0.102247156 0.712234139
vn 0.0360192023 0.0859667435 0.995646715
vn 0.0927193984 0.995678365 -0.00526733464
vn 0.997435868 0.0714855567 -0.0033935688
vn 0.0402738936 -0.680547297 0.73159647
vn 0.0730198026 -0.0880923793 0.993432403
vn 0.750820756 -0.162887424 0.640106082
vn 0.991069496 -0.133344963 0.000686357263
vn 0.103968523 -0.994566262 0.00533014722
vn 1 0 0
vn 0.0355253182 1.06430221e-07 0.999368787
vn 0.0359066054 3.69215485e-07 0.999355137
vn 0.737971246 0.00713612512 0.674794495
vn 0.7209391 -0.0271898378 0.692464828
vn 1 0 -2.96479508e-10
vn 1 0 0
vn 0.0165252071 3.24358318e-08 0.999863446
vn 0.684863508 0.0328130946 0.727932274
vn -0.572910428 0.532080054 -0.623429477
vn -0.533445597 -0.656946838 -0.532782197
vn -0.0701343417 0.695925176 -0.714681149
vn -0.694455147 0.102247149 -0.712234139
vn -0.036019206 0.0859667584 -0.995646715
vn -0.0402738936 -0.680547297 -0.73159647
vn -0.0730198026 -0.0880923793 -0.993432403
vn -0.750820756 -0.162887424 -0.640106082
vn 3.49862583e-10 -0.640013218 -0.768363893
vn 0 -0.0722248927 -0.997388363
vn 7.23752926e-14 0 -1
vn -0.0355253182 1.06430221e-07 -0.999368787
vn 0 0 -1
vn -0.0359066054 3.69215428e-07 -0.999355137
vn -0.737971187 0.00713612512 -0.674794436
vn -0.7209391 -0.0271898378 -0.692464828
vn 3.63109709e-10 0.726316988 -0.687359869
vn 7.27080952e-14 0.0955723301 -0.995422423
vn -0.0165252071 3.24358354e-08 -0.999863446
vn 7.23752926e-14 0 -1
vn -0.684863508 0.0328130946 -0.727932215
vn 0.572910428 0.532080054 -0.623429477
vn 0.533445597 -0.656946838 -0.532782197
vn 0.0701343417 0.695925236 -0.714681149
vn 0.694455147 0.102247156 -0.712234139
vn 0.0360192023 0.0859667435 -0.995646715
vn 0.0402738936 -0.680547297 -0.73159647
vn 0.0730198026 -0.0880923793 -0.993432403
vn 0.750820756 -0.162887424 -0.640106082
vn 0.0355253182 1.06430221e-07 -0.999368787
vn 0.0359066054 3.69215485e-07 -0.999355137
vn 0.737971246 0.00713612512 -0.674794495
vn 0.7209391 -0.0271898378 -0.692464828
vn 0.0165252071 3.24358318e-08 -0.999863446
vn 0.684863508 0.0328130946 -0.727932274
g 
f 53/1/53 41/2/41 38/3/38 55/4/55
f 1/5/1 6/6/6 7/7/7 5/8/5
f 2/9/2 9/10/9 6/6/6 1/5/1
f 2/9/2 1/5/1 5/8/5 8/11/8
f 3/12/3 10/13/10 11/14/11 12/15/12
f 54/16/54 49/17/49 50/18/50 55/4/55
f 54/16/54 55/4/55 38/3/38 39/19/39
f 4/20/4 3/12/3 12/15/12 13/21/13
f 4/20/4 14/22/14 10/13/10 3/12/3
f 16/23/16 17/24/17 10/13/10 14/22/14
f 31/25/31 21/26/21 49/17/49 54/16/54
f 17/24/17 18/27/18 11/14/11 10/13/10
f 18/27/18 19/28/19 20/29/20 11/14/11
f 20/29/20 19/28/19 21/26/21 22/30/22
f 20/29/20 22/30/22 23/31/23 24/32/24
f 20/29/20 24/32/24 12/15/12 11/14/11
f 29/33/29 31/25/31 54/16/54 39/19/39
f 28/34/28 29/33/29 39/19/39 37/35/37
f 24/32/24 23/31/23 25/36/25 15/37/15
f 24/32/24 15/37/15 13/21/13 12/15/12
f 25/36/25 23/31/23 32/38/32 26/39/26
f 27/40/27 8/11/8 5/8/5 28/34/28
f 27/40/27 28/34/28 37/35/37 40/41/40
f 28/34/28 5/8/5 7/7/7 29/33/29
f 29/33/29 7/7/7 30/42/30 31/25/31
f 31/25/31 30/42/30 22/30/22 21/26/21
f 30/42/30 7/7/7 6/6/6 32/38/32
f 30/42/30 32/38/32 23/31/23 22/30/22
f 26/39/26 32/38/32 6/6/6 9/10/9
f 33/43/33 37/35/37 39/19/39 38/3/38
f 34/44/34 33/43/33 38/3/38 41/2/41
f 34/44/34 40/41/40 37/35/37 33/43/33
f 35/45/35 44/46/44 43/47/43 42/48/42
f 36/49/36 45/50/45 44/46/44 35/45/35
f 36/49/36 35/45/35 42/48/42 46/51/46
f 16/23/16 46/51/46 42/48/42 17/24/17
f 52/52/52 53/1/53 55/4/55 50/18/50
f 17/24/17 42/48/42 43/47/43 18/27/18
f 18/27/18 43/47/43 48/53/48 19/28/19
f 48/53/48 49/17/49 21/26/21 19/28/19
f 48/53/48 51/54/51 50/18/50 49/17/49
f 48/53/48 43/47/43 44/46/44 51/54/51
f 51/54/51 44/46/44 45/50/45 47/55/47
f 51/54/51 47/55/47 52/52/52 50/18/50
f 53/56/53 90/57/90 80/58/80 41/59/41
f 56/60/56 58/61/58 60/62/60 59/63/59
f 2/64/2 56/60/56 59/63/59 9/65/9
f 2/64/2 8/66/8 58/61/58 56/60/56
f 57/67/57 63/68/63 62/69/62 61/70/61
f 89/71/89 90/57/90 87/72/87 86/73/86
f 89/71/89 81/74/81 80/58/80 90/57/90
f 4/75/4 13/76/13 63/68/63 57/67/57
f 4/75/4 57/67/57 61/70/61 14/77/14
f 16/78/16 14/77/14 61/70/61 64/79/64
f 75/80/75 89/71/89 86/73/86 68/81/68
f 64/79/64 61/70/61 62/69/62 65/82/65
f 65/82/65 62/69/62 67/83/67 66/84/66
f 67/83/67 69/85/69 68/81/68 66/84/66
f 67/83/67 71/86/71 70/87/70 69/85/69
f 67/83/67 62/69/62 63/68/63 71/86/71
f 73/88/73 81/74/81 89/71/89 75/80/75
f 72/89/72 79/90/79 81/74/81 73/88/73
f 71/86/71 15/91/15 25/92/25 70/87/70
f 71/86/71 63/68/63 13/76/13 15/91/15
f 25/92/25 26/93/26 76/94/76 70/87/70
f 27/95/27 72/89/72 58/61/58 8/66/8
f 27/95/27 40/96/40 79/90/79 72/89/72
f 72/89/72 73/88/73 60/62/60 58/61/58
f 73/88/73 75/80/75 74/97/74 60/62/60
f 75/80/75 68/81/68 69/85/69 74/97/74
f 74/97/74 76/94/76 59/63/59 60/62/60
f 74/97/74 69/85/69 70/87/70 76/94/76
f 26/93/26 9/65/9 59/63/59 76/94/76
f 77/98/77 80/58/80 81/74/81 79/90/79
f 34/99/34 41/59/41 80/58/80 77/98/77
f 34/99/34 77/98/77 79/90/79 40/96/40
f 78/100/78 82/101/82 83/102/83 84/103/84
f 36/104/36 78/100/78 84/103/84 45/105/45
f 36/104/36 46/106/46 82/101/82 78/100/78
f 16/78/16 64/79/64 82/101/82 46/106/46
f 52/107/52 87/72/87 90/57/90 53/56/53
f 64/79/64 65/82/65 83/102/83 82/101/82
f 65/82/65 66/84/66 85/108/85 83/102/83
f 85/108/85 66/84/66 68/81/68 86/73/86
f 85/108/85 86/73/86 87/72/87 88/109/88
f 85/108/85 88/109/88 84/103/84 83/102/83
f 88/109/88 47/110/47 45/105/45 84/103/84
f 88/109/88 87/72/87 52/107/52 47/110/47
